<svg id="visual" viewBox="0 0 1920 1080" width="1920" height="1080" xmlns="http://www.w3.org/2000/svg" xmlns:xlink="http://www.w3.org/1999/xlink" version="1.1"><rect x="0" y="0" width="1920" height="1080" fill="#001220"></rect><defs><linearGradient id="grad1_0" x1="43.8%" y1="0%" x2="100%" y2="100%"><stop offset="14.444444444444446%" stop-color="#a9fa3c" stop-opacity="1"></stop><stop offset="85.55555555555554%" stop-color="#a9fa3c" stop-opacity="1"></stop></linearGradient></defs><defs><linearGradient id="grad1_1" x1="43.8%" y1="0%" x2="100%" y2="100%"><stop offset="14.444444444444446%" stop-color="#a9fa3c" stop-opacity="1"></stop><stop offset="85.55555555555554%" stop-color="#40dd62" stop-opacity="1"></stop></linearGradient></defs><defs><linearGradient id="grad1_2" x1="43.8%" y1="0%" x2="100%" y2="100%"><stop offset="14.444444444444446%" stop-color="#00bb7b" stop-opacity="1"></stop><stop offset="85.55555555555554%" stop-color="#40dd62" stop-opacity="1"></stop></linearGradient></defs><defs><linearGradient id="grad1_3" x1="43.8%" y1="0%" x2="100%" y2="100%"><stop offset="14.444444444444446%" stop-color="#00bb7b" stop-opacity="1"></stop><stop offset="85.55555555555554%" stop-color="#009885" stop-opacity="1"></stop></linearGradient></defs><defs><linearGradient id="grad1_4" x1="43.8%" y1="0%" x2="100%" y2="100%"><stop offset="14.444444444444446%" stop-color="#00747f" stop-opacity="1"></stop><stop offset="85.55555555555554%" stop-color="#009885" stop-opacity="1"></stop></linearGradient></defs><defs><linearGradient id="grad1_5" x1="43.8%" y1="0%" x2="100%" y2="100%"><stop offset="14.444444444444446%" stop-color="#00747f" stop-opacity="1"></stop><stop offset="85.55555555555554%" stop-color="#005169" stop-opacity="1"></stop></linearGradient></defs><defs><linearGradient id="grad1_6" x1="43.8%" y1="0%" x2="100%" y2="100%"><stop offset="14.444444444444446%" stop-color="#003047" stop-opacity="1"></stop><stop offset="85.55555555555554%" stop-color="#005169" stop-opacity="1"></stop></linearGradient></defs><defs><linearGradient id="grad1_7" x1="43.8%" y1="0%" x2="100%" y2="100%"><stop offset="14.444444444444446%" stop-color="#003047" stop-opacity="1"></stop><stop offset="85.55555555555554%" stop-color="#001220" stop-opacity="1"></stop></linearGradient></defs><defs><linearGradient id="grad2_0" x1="0%" y1="0%" x2="56.3%" y2="100%"><stop offset="14.444444444444446%" stop-color="#a9fa3c" stop-opacity="1"></stop><stop offset="85.55555555555554%" stop-color="#a9fa3c" stop-opacity="1"></stop></linearGradient></defs><defs><linearGradient id="grad2_1" x1="0%" y1="0%" x2="56.3%" y2="100%"><stop offset="14.444444444444446%" stop-color="#40dd62" stop-opacity="1"></stop><stop offset="85.55555555555554%" stop-color="#a9fa3c" stop-opacity="1"></stop></linearGradient></defs><defs><linearGradient id="grad2_2" x1="0%" y1="0%" x2="56.3%" y2="100%"><stop offset="14.444444444444446%" stop-color="#40dd62" stop-opacity="1"></stop><stop offset="85.55555555555554%" stop-color="#00bb7b" stop-opacity="1"></stop></linearGradient></defs><defs><linearGradient id="grad2_3" x1="0%" y1="0%" x2="56.3%" y2="100%"><stop offset="14.444444444444446%" stop-color="#009885" stop-opacity="1"></stop><stop offset="85.55555555555554%" stop-color="#00bb7b" stop-opacity="1"></stop></linearGradient></defs><defs><linearGradient id="grad2_4" x1="0%" y1="0%" x2="56.3%" y2="100%"><stop offset="14.444444444444446%" stop-color="#009885" stop-opacity="1"></stop><stop offset="85.55555555555554%" stop-color="#00747f" stop-opacity="1"></stop></linearGradient></defs><defs><linearGradient id="grad2_5" x1="0%" y1="0%" x2="56.3%" y2="100%"><stop offset="14.444444444444446%" stop-color="#005169" stop-opacity="1"></stop><stop offset="85.55555555555554%" stop-color="#00747f" stop-opacity="1"></stop></linearGradient></defs><defs><linearGradient id="grad2_6" x1="0%" y1="0%" x2="56.3%" y2="100%"><stop offset="14.444444444444446%" stop-color="#005169" stop-opacity="1"></stop><stop offset="85.55555555555554%" stop-color="#003047" stop-opacity="1"></stop></linearGradient></defs><defs><linearGradient id="grad2_7" x1="0%" y1="0%" x2="56.3%" y2="100%"><stop offset="14.444444444444446%" stop-color="#001220" stop-opacity="1"></stop><stop offset="85.55555555555554%" stop-color="#003047" stop-opacity="1"></stop></linearGradient></defs><g transform="translate(1920, 0)"><path d="M0 1026C-62.8 966.9 -125.7 907.8 -201.8 884.3C-278 860.7 -367.5 872.6 -383.6 796.5C-399.6 720.3 -342.4 556.2 -432.7 542.6C-523 529 -761 666 -802.2 639.7C-843.3 613.4 -687.6 423.9 -695.5 335C-703.5 246 -875 257.6 -957.4 218.5C-1039.7 179.4 -1032.9 89.7 -1026 0L0 0Z" fill="#002134"></path><path d="M0 897.8C-55 846.1 -110 794.4 -176.6 773.7C-243.2 753.1 -321.5 763.5 -335.6 696.9C-349.7 630.3 -299.6 486.7 -378.6 474.8C-457.7 462.9 -665.9 582.7 -701.9 559.7C-737.9 536.8 -601.7 370.9 -608.6 293.1C-615.5 215.2 -765.7 225.4 -837.7 191.2C-909.8 157 -903.8 78.5 -897.7 0L0 0Z" fill="#004059"></path><path d="M0 769.5C-47.1 725.2 -94.3 680.9 -151.4 663.2C-208.5 645.5 -275.6 654.4 -287.7 597.3C-299.7 540.3 -256.8 417.1 -324.5 406.9C-392.3 396.8 -570.8 499.5 -601.6 479.8C-632.5 460.1 -515.7 317.9 -521.7 251.2C-527.6 184.5 -656.3 193.2 -718 163.9C-779.8 134.6 -774.6 67.3 -769.5 0L0 0Z" fill="#006276"></path><path d="M0 641.3C-39.3 604.3 -78.5 567.4 -126.1 552.7C-173.7 537.9 -229.7 545.4 -239.7 497.8C-249.8 450.2 -214 347.6 -270.4 339.1C-326.9 330.6 -475.6 416.2 -501.3 399.8C-527.1 383.4 -429.8 264.9 -434.7 209.3C-439.7 153.7 -546.9 161 -598.4 136.6C-649.8 112.2 -645.5 56.1 -641.2 0L0 0Z" fill="#008684"></path><path d="M0 513C-31.4 483.5 -62.8 453.9 -100.9 442.1C-139 430.3 -183.7 436.3 -191.8 398.2C-199.8 360.2 -171.2 278.1 -216.4 271.3C-261.5 264.5 -380.5 333 -401.1 319.9C-421.7 306.7 -343.8 212 -347.8 167.5C-351.7 123 -437.5 128.8 -478.7 109.3C-519.9 89.7 -516.4 44.9 -513 0L0 0Z" fill="#00aa82"></path><path d="M0 384.8C-23.6 362.6 -47.1 340.4 -75.7 331.6C-104.2 322.8 -137.8 327.2 -143.8 298.7C-149.9 270.1 -128.4 208.6 -162.3 203.5C-196.1 198.4 -285.4 249.7 -300.8 239.9C-316.2 230 -257.9 159 -260.8 125.6C-263.8 92.2 -328.1 96.6 -359 81.9C-389.9 67.3 -387.3 33.6 -384.7 0L0 0Z" fill="#00cc70"></path><path d="M0 256.5C-15.7 241.7 -31.4 227 -50.5 221.1C-69.5 215.2 -91.9 218.1 -95.9 199.1C-99.9 180.1 -85.6 139 -108.2 135.6C-130.8 132.3 -190.3 166.5 -200.5 159.9C-210.8 153.4 -171.9 106 -173.9 83.7C-175.9 61.5 -218.8 64.4 -239.3 54.6C-259.9 44.9 -258.2 22.4 -256.5 0L0 0Z" fill="#78ec51"></path><path d="M0 128.3C-7.9 120.9 -15.7 113.5 -25.2 110.5C-34.7 107.6 -45.9 109.1 -47.9 99.6C-50 90 -42.8 69.5 -54.1 67.8C-65.4 66.1 -95.1 83.2 -100.3 80C-105.4 76.7 -86 53 -86.9 41.9C-87.9 30.7 -109.4 32.2 -119.7 27.3C-130 22.4 -129.1 11.2 -128.2 0L0 0Z" fill="#a9fa3c"></path></g><g transform="translate(0, 1080)"><path d="M0 -1026C31.1 -843.3 62.1 -660.6 156.7 -686.3C251.2 -712.1 409.3 -946.2 445.2 -924.4C481.1 -902.6 394.8 -625 437.7 -548.8C480.5 -472.7 652.5 -598.2 767.8 -612.3C883 -626.4 941.6 -529.1 892.9 -430C844.1 -330.9 687.9 -230 692.2 -158C696.5 -86 861.2 -43 1026 0L0 0Z" fill="#002134"></path><path d="M0 -897.7C27.2 -737.9 54.3 -578.1 137.1 -600.6C219.8 -623.1 358.1 -827.9 389.5 -808.8C420.9 -789.8 345.5 -546.8 383 -480.2C420.5 -413.6 570.9 -523.4 671.8 -535.7C772.7 -548.1 823.9 -462.9 781.3 -376.2C738.6 -289.5 601.9 -201.2 605.7 -138.2C609.4 -75.3 753.6 -37.6 897.8 0L0 0Z" fill="#004059"></path><path d="M0 -769.5C23.3 -632.5 46.6 -495.5 117.5 -514.8C188.4 -534 306.9 -709.6 333.9 -693.3C360.8 -677 296.1 -468.7 328.3 -411.6C360.4 -354.6 489.4 -448.6 575.8 -459.2C662.3 -469.8 706.2 -396.8 669.6 -322.5C633.1 -248.2 515.9 -172.5 519.1 -118.5C522.4 -64.5 645.9 -32.3 769.5 0L0 0Z" fill="#006276"></path><path d="M0 -641.2C19.4 -527.1 38.8 -412.9 97.9 -429C157 -445 255.8 -591.4 278.2 -577.7C300.7 -564.1 246.8 -390.6 273.6 -343C300.3 -295.5 407.8 -373.9 479.8 -382.7C551.9 -391.5 588.5 -330.7 558 -268.7C527.5 -206.8 429.9 -143.7 432.6 -98.7C435.3 -53.8 538.3 -26.9 641.3 0L0 0Z" fill="#008684"></path><path d="M0 -513C15.5 -421.7 31.1 -330.3 78.3 -343.2C125.6 -356 204.6 -473.1 222.6 -462.2C240.5 -451.3 197.4 -312.5 218.8 -274.4C240.3 -236.4 326.2 -299.1 383.9 -306.1C441.5 -313.2 470.8 -264.5 446.4 -215C422 -165.4 344 -115 346.1 -79C348.2 -43 430.6 -21.5 513 0L0 0Z" fill="#00aa82"></path><path d="M0 -384.7C11.6 -316.2 23.3 -247.7 58.7 -257.4C94.2 -267 153.5 -354.8 166.9 -346.6C180.4 -338.5 148.1 -234.4 164.1 -205.8C180.2 -177.3 244.7 -224.3 287.9 -229.6C331.1 -234.9 353.1 -198.4 334.8 -161.2C316.5 -124.1 258 -86.2 259.6 -59.2C261.2 -32.3 323 -16.1 384.8 0L0 0Z" fill="#00cc70"></path><path d="M0 -256.5C7.8 -210.8 15.5 -165.2 39.2 -171.6C62.8 -178 102.3 -236.5 111.3 -231.1C120.3 -225.7 98.7 -156.2 109.4 -137.2C120.1 -118.2 163.1 -149.5 191.9 -153.1C220.8 -156.6 235.4 -132.3 223.2 -107.5C211 -82.7 172 -57.5 173 -39.5C174.1 -21.5 215.3 -10.8 256.5 0L0 0Z" fill="#78ec51"></path><path d="M0 -128.2C3.9 -105.4 7.8 -82.6 19.6 -85.8C31.4 -89 51.2 -118.3 55.6 -115.5C60.1 -112.8 49.4 -78.1 54.7 -68.6C60.1 -59.1 81.6 -74.8 96 -76.5C110.4 -78.3 117.7 -66.1 111.6 -53.7C105.5 -41.4 86 -28.7 86.5 -19.7C87.1 -10.8 107.7 -5.4 128.3 0L0 0Z" fill="#a9fa3c"></path></g></svg>