<svg id="visual" viewBox="0 0 1920 1080" width="1920" height="1080" xmlns="http://www.w3.org/2000/svg" xmlns:xlink="http://www.w3.org/1999/xlink" version="1.1"><rect x="0" y="0" width="1920" height="1080" fill="#001220"></rect><defs><linearGradient id="grad1_0" x1="43.8%" y1="0%" x2="100%" y2="100%"><stop offset="14.444444444444446%" stop-color="#001220" stop-opacity="1"></stop><stop offset="85.55555555555554%" stop-color="#001220" stop-opacity="1"></stop></linearGradient></defs><defs><linearGradient id="grad2_0" x1="0%" y1="0%" x2="56.3%" y2="100%"><stop offset="14.444444444444446%" stop-color="#001220" stop-opacity="1"></stop><stop offset="85.55555555555554%" stop-color="#001220" stop-opacity="1"></stop></linearGradient></defs><g transform="translate(1920, 0)"><path d="M0 972C-98 892.3 -196 812.7 -322.6 778.8C-449.2 745 -604.3 756.9 -687.3 687.3C-770.3 617.7 -781.3 466.4 -816.7 338.3C-852.1 210.1 -912.1 105.1 -972 0L0 0Z" fill="#a9fa3c"></path></g><g transform="translate(0, 1080)"><path d="M0 -972C143.6 -974 287.3 -975.9 372 -898C456.7 -820.1 482.4 -662.4 569.9 -569.9C657.5 -477.5 806.8 -450.3 884.2 -366.2C961.5 -282.1 966.7 -141.1 972 0L0 0Z" fill="#a9fa3c"></path></g></svg>